<?xml version="1.0" standalone="no"?>
<!DOCTYPE svg PUBLIC "-//W3C//DTD SVG 20010904//EN"
 "http://www.w3.org/TR/2001/REC-SVG-20010904/DTD/svg10.dtd">
<svg version="1.0" xmlns="http://www.w3.org/2000/svg"
 width="150.000000pt" height="150.000000pt" viewBox="0 0 150.000000 150.000000"
 preserveAspectRatio="xMidYMid meet">

<g transform="translate(0.000000,150.000000) scale(0.100000,-0.100000)"
fill="#000000" stroke="none">
<path d="M870 1292 c0 -5 16 -14 35 -19 l35 -8 -34 -75 c-19 -41 -53 -119 -77
-172 -24 -54 -47 -98 -50 -98 -12 0 -127 185 -164 262 l-35 73 26 11 c43 18
16 22 -106 16 -113 -5 -115 -6 -147 -38 -44 -43 -45 -93 -4 -135 34 -34 63
-37 91 -9 25 25 25 52 0 75 -22 20 -70 14 -70 -10 0 -18 5 -19 30 -3 27 17 50
-3 30 -27 -29 -35 -100 -1 -100 48 0 13 11 34 25 47 21 20 39 25 95 28 l70 4
0 -123 c0 -122 14 -358 26 -431 l6 -38 -51 0 c-28 0 -51 -4 -51 -10 0 -6 40
-10 100 -10 96 0 101 -1 109 -23 15 -40 74 -82 171 -123 118 -50 160 -85 167
-140 17 -131 -119 -245 -226 -189 -67 34 -82 162 -26 218 55 55 137 -35 91
-99 -12 -15 -17 -16 -27 -7 -10 10 -9 16 1 29 12 14 11 16 -9 12 -33 -4 -49
-32 -32 -52 21 -25 59 -19 92 13 56 57 29 129 -51 138 -113 11 -191 -124 -123
-215 72 -97 192 -94 286 7 73 78 85 157 34 224 -14 18 -68 57 -122 87 -106 60
-152 98 -161 136 -25 99 105 175 176 104 25 -25 26 -82 4 -105 -23 -23 -58
-15 -62 14 -3 20 0 23 18 18 14 -3 20 -1 17 6 -2 7 -16 13 -30 15 -21 3 -30
-3 -39 -24 -11 -23 -10 -28 11 -45 32 -26 73 -24 101 6 l23 25 18 -30 c34 -56
105 -51 146 9 28 42 29 75 3 101 -26 26 -51 25 -84 -1 -29 -23 -34 -50 -12
-69 20 -15 61 -9 62 10 1 10 -1 10 -3 2 -6 -16 -23 -11 -36 10 -14 21 -2 48
22 48 37 0 43 -72 10 -114 -27 -34 -68 -32 -87 4 -16 30 -11 199 13 410 24
218 17 200 75 193 31 -4 50 -2 50 4 0 6 -46 15 -102 22 -57 6 -113 14 -125 17
-13 4 -23 2 -23 -4z m-195 -321 c71 -152 75 -165 58 -174 -35 -20 -73 -66 -79
-96 -6 -28 -10 -31 -44 -31 l-37 0 -6 83 c-9 107 -9 395 0 426 6 24 7 24 18
-10 7 -18 47 -108 90 -198z m260 3 l-7 -183 -30 15 c-19 10 -48 14 -74 12 -24
-2 -44 0 -44 4 0 34 152 368 158 348 3 -7 1 -95 -3 -196z"/>
</g>
</svg>
